<mxfile host="Electron" agent="Mozilla/5.0 (Windows NT 10.0; Win64; x64) AppleWebKit/537.36 (KHTML, like Gecko) draw.io/24.7.5 Chrome/126.0.6478.183 Electron/31.3.0 Safari/537.36" version="24.7.5">
  <diagram name="Page-1" id="jYuAm2ZBDT6OfC7GVNKT">
    <mxGraphModel dx="1221" dy="717" grid="1" gridSize="10" guides="1" tooltips="1" connect="1" arrows="1" fold="1" page="1" pageScale="1" pageWidth="850" pageHeight="1100" math="0" shadow="0">
      <root>
        <mxCell id="0" />
        <mxCell id="1" parent="0" />
        <mxCell id="UvEGsaRXCiTx__IG_Cya-22" style="edgeStyle=orthogonalEdgeStyle;rounded=0;orthogonalLoop=1;jettySize=auto;html=1;exitX=1;exitY=0.5;exitDx=0;exitDy=0;" edge="1" parent="1" source="UvEGsaRXCiTx__IG_Cya-31" target="UvEGsaRXCiTx__IG_Cya-13">
          <mxGeometry relative="1" as="geometry">
            <mxPoint x="200" y="340" as="sourcePoint" />
          </mxGeometry>
        </mxCell>
        <mxCell id="UvEGsaRXCiTx__IG_Cya-23" style="edgeStyle=orthogonalEdgeStyle;rounded=0;orthogonalLoop=1;jettySize=auto;html=1;exitX=1;exitY=0.5;exitDx=0;exitDy=0;entryX=0;entryY=0.5;entryDx=0;entryDy=0;" edge="1" parent="1" source="UvEGsaRXCiTx__IG_Cya-13" target="UvEGsaRXCiTx__IG_Cya-14">
          <mxGeometry relative="1" as="geometry" />
        </mxCell>
        <mxCell id="UvEGsaRXCiTx__IG_Cya-13" value="获取镜像配置" style="rounded=1;whiteSpace=wrap;html=1;fillColor=#dae8fc;strokeColor=#6c8ebf;" vertex="1" parent="1">
          <mxGeometry x="280" y="320" width="120" height="40" as="geometry" />
        </mxCell>
        <mxCell id="UvEGsaRXCiTx__IG_Cya-24" style="edgeStyle=orthogonalEdgeStyle;rounded=0;orthogonalLoop=1;jettySize=auto;html=1;exitX=1;exitY=0.5;exitDx=0;exitDy=0;" edge="1" parent="1" source="UvEGsaRXCiTx__IG_Cya-14" target="UvEGsaRXCiTx__IG_Cya-15">
          <mxGeometry relative="1" as="geometry" />
        </mxCell>
        <mxCell id="UvEGsaRXCiTx__IG_Cya-14" value="创建容器目录" style="rounded=1;whiteSpace=wrap;html=1;fillColor=#ffe6cc;strokeColor=#d79b00;" vertex="1" parent="1">
          <mxGeometry x="480" y="320" width="120" height="40" as="geometry" />
        </mxCell>
        <mxCell id="UvEGsaRXCiTx__IG_Cya-35" style="edgeStyle=orthogonalEdgeStyle;rounded=0;orthogonalLoop=1;jettySize=auto;html=1;exitX=1;exitY=0.5;exitDx=0;exitDy=0;" edge="1" parent="1" source="UvEGsaRXCiTx__IG_Cya-15" target="UvEGsaRXCiTx__IG_Cya-16">
          <mxGeometry relative="1" as="geometry" />
        </mxCell>
        <mxCell id="UvEGsaRXCiTx__IG_Cya-15" value="写入代码文件" style="rounded=1;whiteSpace=wrap;html=1;fillColor=#f8cecc;strokeColor=#b85450;" vertex="1" parent="1">
          <mxGeometry x="680" y="320" width="120" height="40" as="geometry" />
        </mxCell>
        <mxCell id="UvEGsaRXCiTx__IG_Cya-36" style="edgeStyle=orthogonalEdgeStyle;rounded=0;orthogonalLoop=1;jettySize=auto;html=1;exitX=0.5;exitY=1;exitDx=0;exitDy=0;entryX=1;entryY=0.5;entryDx=0;entryDy=0;" edge="1" parent="1" source="UvEGsaRXCiTx__IG_Cya-16" target="UvEGsaRXCiTx__IG_Cya-17">
          <mxGeometry relative="1" as="geometry" />
        </mxCell>
        <mxCell id="UvEGsaRXCiTx__IG_Cya-16" value="运行容器" style="rounded=1;whiteSpace=wrap;html=1;fillColor=#fff2cc;strokeColor=#d6b656;" vertex="1" parent="1">
          <mxGeometry x="800" y="400" width="120" height="40" as="geometry" />
        </mxCell>
        <mxCell id="UvEGsaRXCiTx__IG_Cya-27" style="edgeStyle=orthogonalEdgeStyle;rounded=0;orthogonalLoop=1;jettySize=auto;html=1;exitX=0;exitY=0.5;exitDx=0;exitDy=0;entryX=1;entryY=0.5;entryDx=0;entryDy=0;" edge="1" parent="1" source="UvEGsaRXCiTx__IG_Cya-17" target="UvEGsaRXCiTx__IG_Cya-18">
          <mxGeometry relative="1" as="geometry" />
        </mxCell>
        <mxCell id="UvEGsaRXCiTx__IG_Cya-17" value="捕获容器输出" style="rounded=1;whiteSpace=wrap;html=1;fillColor=#f8cecc;strokeColor=#b85450;" vertex="1" parent="1">
          <mxGeometry x="690" y="480" width="120" height="40" as="geometry" />
        </mxCell>
        <mxCell id="UvEGsaRXCiTx__IG_Cya-28" style="edgeStyle=orthogonalEdgeStyle;rounded=0;orthogonalLoop=1;jettySize=auto;html=1;exitX=0;exitY=0.5;exitDx=0;exitDy=0;" edge="1" parent="1" source="UvEGsaRXCiTx__IG_Cya-18" target="UvEGsaRXCiTx__IG_Cya-19">
          <mxGeometry relative="1" as="geometry" />
        </mxCell>
        <mxCell id="UvEGsaRXCiTx__IG_Cya-18" value="返回结果" style="rounded=1;whiteSpace=wrap;html=1;fillColor=#e1d5e7;strokeColor=#9673a6;" vertex="1" parent="1">
          <mxGeometry x="480" y="480" width="120" height="40" as="geometry" />
        </mxCell>
        <mxCell id="UvEGsaRXCiTx__IG_Cya-34" style="edgeStyle=orthogonalEdgeStyle;rounded=0;orthogonalLoop=1;jettySize=auto;html=1;exitX=0;exitY=0.5;exitDx=0;exitDy=0;entryX=1;entryY=0.5;entryDx=0;entryDy=0;" edge="1" parent="1" source="UvEGsaRXCiTx__IG_Cya-19" target="UvEGsaRXCiTx__IG_Cya-32">
          <mxGeometry relative="1" as="geometry" />
        </mxCell>
        <mxCell id="UvEGsaRXCiTx__IG_Cya-19" value="清理容器" style="rounded=1;whiteSpace=wrap;html=1;fillColor=#ffe6cc;strokeColor=#d79b00;" vertex="1" parent="1">
          <mxGeometry x="280" y="480" width="120" height="40" as="geometry" />
        </mxCell>
        <mxCell id="UvEGsaRXCiTx__IG_Cya-31" value="请求开始" style="ellipse;whiteSpace=wrap;html=1;fillColor=#d5e8d4;strokeColor=#82b366;" vertex="1" parent="1">
          <mxGeometry x="90" y="320" width="100" height="40" as="geometry" />
        </mxCell>
        <mxCell id="UvEGsaRXCiTx__IG_Cya-32" value="请求结束" style="ellipse;whiteSpace=wrap;html=1;fillColor=#d5e8d4;strokeColor=#82b366;" vertex="1" parent="1">
          <mxGeometry x="90" y="480" width="100" height="40" as="geometry" />
        </mxCell>
        <mxCell id="UvEGsaRXCiTx__IG_Cya-37" value="" style="image;sketch=0;aspect=fixed;html=1;points=[];align=center;fontSize=12;image=img/lib/mscae/Docker.svg;" vertex="1" parent="1">
          <mxGeometry x="940" y="390" width="73.17" height="60" as="geometry" />
        </mxCell>
        <mxCell id="UvEGsaRXCiTx__IG_Cya-38" value="" style="image;aspect=fixed;perimeter=ellipsePerimeter;html=1;align=center;shadow=0;dashed=0;fontColor=#4277BB;labelBackgroundColor=default;fontSize=12;spacingTop=3;image=img/lib/ibm/vpc/ImageService.svg;" vertex="1" parent="1">
          <mxGeometry x="310" y="250" width="60" height="60" as="geometry" />
        </mxCell>
        <mxCell id="UvEGsaRXCiTx__IG_Cya-39" value="" style="sketch=0;outlineConnect=0;fontColor=#232F3E;gradientColor=none;fillColor=#232F3D;strokeColor=none;dashed=0;verticalLabelPosition=bottom;verticalAlign=top;align=center;html=1;fontSize=12;fontStyle=0;aspect=fixed;pointerEvents=1;shape=mxgraph.aws4.source_code;" vertex="1" parent="1">
          <mxGeometry x="718.08" y="250" width="43.85" height="60" as="geometry" />
        </mxCell>
        <mxCell id="UvEGsaRXCiTx__IG_Cya-40" value="" style="sketch=0;pointerEvents=1;shadow=0;dashed=0;html=1;strokeColor=none;labelPosition=center;verticalLabelPosition=bottom;verticalAlign=top;align=center;fillColor=#505050;shape=mxgraph.mscae.oms.log_management" vertex="1" parent="1">
          <mxGeometry x="720.93" y="410" width="41" height="60" as="geometry" />
        </mxCell>
        <mxCell id="UvEGsaRXCiTx__IG_Cya-41" value="" style="sketch=0;outlineConnect=0;fontColor=#232F3E;gradientColor=none;fillColor=#232F3D;strokeColor=none;dashed=0;verticalLabelPosition=bottom;verticalAlign=top;align=center;html=1;fontSize=12;fontStyle=0;aspect=fixed;pointerEvents=1;shape=mxgraph.aws4.folder;" vertex="1" parent="1">
          <mxGeometry x="507.04" y="250" width="65.92" height="60" as="geometry" />
        </mxCell>
        <mxCell id="UvEGsaRXCiTx__IG_Cya-42" value="" style="aspect=fixed;sketch=0;html=1;dashed=0;whitespace=wrap;verticalLabelPosition=bottom;verticalAlign=top;fillColor=#2875E2;strokeColor=#ffffff;points=[[0.005,0.63,0],[0.1,0.2,0],[0.9,0.2,0],[0.5,0,0],[0.995,0.63,0],[0.72,0.99,0],[0.5,1,0],[0.28,0.99,0]];shape=mxgraph.kubernetes.icon2;kubernetesLabel=1;prIcon=api" vertex="1" parent="1">
          <mxGeometry x="508.75" y="410" width="62.5" height="60" as="geometry" />
        </mxCell>
        <mxCell id="UvEGsaRXCiTx__IG_Cya-43" value="" style="sketch=0;aspect=fixed;pointerEvents=1;shadow=0;dashed=0;html=1;strokeColor=none;labelPosition=center;verticalLabelPosition=bottom;verticalAlign=top;align=center;shape=mxgraph.azure.startup_task;fillColor=#3333FF;" vertex="1" parent="1">
          <mxGeometry x="111.2" y="250" width="57.6" height="60" as="geometry" />
        </mxCell>
        <mxCell id="UvEGsaRXCiTx__IG_Cya-44" value="" style="sketch=0;aspect=fixed;pointerEvents=1;shadow=0;dashed=0;html=1;strokeColor=none;labelPosition=center;verticalLabelPosition=bottom;verticalAlign=top;align=center;shape=mxgraph.azure.startup_task;fillColor=#3333FF;" vertex="1" parent="1">
          <mxGeometry x="111.2" y="410" width="57.6" height="60" as="geometry" />
        </mxCell>
        <mxCell id="UvEGsaRXCiTx__IG_Cya-45" value="" style="html=1;verticalLabelPosition=bottom;align=center;labelBackgroundColor=#ffffff;verticalAlign=top;strokeWidth=2;strokeColor=#0080F0;shadow=0;dashed=0;shape=mxgraph.ios7.icons.trashcan;aspect=fixed;" vertex="1" parent="1">
          <mxGeometry x="310" y="410" width="48" height="60" as="geometry" />
        </mxCell>
      </root>
    </mxGraphModel>
  </diagram>
</mxfile>
